<svg width="1172" height="210" viewBox="0 0 1172 210" fill="none" xmlns="http://www.w3.org/2000/svg">
<rect width="1172" height="210" fill="#F55529"/>
<path d="M142.913 99V96.39L151.253 88.47C151.953 87.81 152.473 87.23 152.813 86.73C153.153 86.23 153.373 85.77 153.473 85.35C153.593 84.91 153.653 84.5 153.653 84.12C153.653 83.16 153.323 82.42 152.663 81.9C152.003 81.36 151.033 81.09 149.753 81.09C148.733 81.09 147.803 81.27 146.963 81.63C146.143 81.99 145.433 82.54 144.833 83.28L142.103 81.18C142.923 80.08 144.023 79.23 145.403 78.63C146.803 78.01 148.363 77.7 150.083 77.7C151.603 77.7 152.923 77.95 154.043 78.45C155.183 78.93 156.053 79.62 156.653 80.52C157.273 81.42 157.583 82.49 157.583 83.73C157.583 84.41 157.493 85.09 157.313 85.77C157.133 86.43 156.793 87.13 156.293 87.87C155.793 88.61 155.063 89.44 154.103 90.36L146.933 97.17L146.123 95.7H158.393V99H142.913ZM167.604 99.3C166.124 99.3 164.674 99.09 163.254 98.67C161.854 98.23 160.674 97.63 159.714 96.87L161.364 93.84C162.124 94.46 163.044 94.96 164.124 95.34C165.224 95.72 166.364 95.91 167.544 95.91C168.924 95.91 170.004 95.62 170.784 95.04C171.584 94.46 171.984 93.68 171.984 92.7C171.984 92.04 171.814 91.46 171.474 90.96C171.154 90.46 170.574 90.08 169.734 89.82C168.914 89.56 167.784 89.43 166.344 89.43H161.274L162.354 78H174.684V81.27H163.794L165.834 79.41L165.024 87.96L162.984 86.13H167.214C169.294 86.13 170.964 86.41 172.224 86.97C173.504 87.51 174.434 88.27 175.014 89.25C175.614 90.21 175.914 91.31 175.914 92.55C175.914 93.77 175.614 94.89 175.014 95.91C174.414 96.93 173.494 97.75 172.254 98.37C171.034 98.99 169.484 99.3 167.604 99.3ZM187.254 99.3C185.354 99.3 183.724 98.9 182.364 98.1C181.004 97.28 179.964 96.1 179.244 94.56C178.524 93.02 178.164 91.12 178.164 88.86C178.164 86.46 178.594 84.43 179.454 82.77C180.334 81.11 181.544 79.85 183.084 78.99C184.644 78.13 186.434 77.7 188.454 77.7C189.514 77.7 190.524 77.81 191.484 78.03C192.464 78.25 193.294 78.59 193.974 79.05L192.534 81.99C191.954 81.61 191.324 81.35 190.644 81.21C189.984 81.05 189.284 80.97 188.544 80.97C186.564 80.97 184.994 81.58 183.834 82.8C182.674 84.02 182.094 85.82 182.094 88.2C182.094 88.58 182.104 89.03 182.124 89.55C182.144 90.05 182.214 90.56 182.334 91.08L181.134 89.76C181.494 88.94 181.984 88.26 182.604 87.72C183.244 87.16 183.994 86.74 184.854 86.46C185.734 86.18 186.684 86.04 187.704 86.04C189.084 86.04 190.314 86.31 191.394 86.85C192.474 87.37 193.334 88.12 193.974 89.1C194.614 90.06 194.934 91.19 194.934 92.49C194.934 93.87 194.594 95.07 193.914 96.09C193.234 97.11 192.314 97.9 191.154 98.46C189.994 99.02 188.694 99.3 187.254 99.3ZM187.044 96.24C187.844 96.24 188.554 96.1 189.174 95.82C189.794 95.52 190.274 95.1 190.614 94.56C190.974 94.02 191.154 93.39 191.154 92.67C191.154 91.57 190.774 90.7 190.014 90.06C189.254 89.42 188.234 89.1 186.954 89.1C186.114 89.1 185.374 89.26 184.734 89.58C184.114 89.88 183.614 90.3 183.234 90.84C182.874 91.38 182.694 92 182.694 92.7C182.694 93.34 182.864 93.93 183.204 94.47C183.544 95.01 184.034 95.44 184.674 95.76C185.334 96.08 186.124 96.24 187.044 96.24ZM205.732 99.3C204.072 99.3 202.572 98.88 201.232 98.04C199.912 97.2 198.872 95.98 198.112 94.38C197.352 92.76 196.972 90.8 196.972 88.5C196.972 86.2 197.352 84.25 198.112 82.65C198.872 81.03 199.912 79.8 201.232 78.96C202.572 78.12 204.072 77.7 205.732 77.7C207.412 77.7 208.912 78.12 210.232 78.96C211.552 79.8 212.592 81.03 213.352 82.65C214.132 84.25 214.522 86.2 214.522 88.5C214.522 90.8 214.132 92.76 213.352 94.38C212.592 95.98 211.552 97.2 210.232 98.04C208.912 98.88 207.412 99.3 205.732 99.3ZM205.732 95.91C206.712 95.91 207.562 95.65 208.282 95.13C209.002 94.59 209.562 93.77 209.962 92.67C210.382 91.57 210.592 90.18 210.592 88.5C210.592 86.8 210.382 85.41 209.962 84.33C209.562 83.23 209.002 82.42 208.282 81.9C207.562 81.36 206.712 81.09 205.732 81.09C204.792 81.09 203.952 81.36 203.212 81.9C202.492 82.42 201.922 83.23 201.502 84.33C201.102 85.41 200.902 86.8 200.902 88.5C200.902 90.18 201.102 91.57 201.502 92.67C201.922 93.77 202.492 94.59 203.212 95.13C203.952 95.65 204.792 95.91 205.732 95.91ZM227.789 87.78C227.109 87.78 226.529 87.55 226.049 87.09C225.569 86.61 225.329 86.01 225.329 85.29C225.329 84.53 225.569 83.93 226.049 83.49C226.529 83.03 227.109 82.8 227.789 82.8C228.469 82.8 229.049 83.03 229.529 83.49C230.009 83.93 230.249 84.53 230.249 85.29C230.249 86.01 230.009 86.61 229.529 87.09C229.049 87.55 228.469 87.78 227.789 87.78ZM227.789 99.21C227.109 99.21 226.529 98.98 226.049 98.52C225.569 98.04 225.329 97.44 225.329 96.72C225.329 95.96 225.569 95.36 226.049 94.92C226.529 94.46 227.109 94.23 227.789 94.23C228.469 94.23 229.049 94.46 229.529 94.92C230.009 95.36 230.249 95.96 230.249 96.72C230.249 97.44 230.009 98.04 229.529 98.52C229.049 98.98 228.469 99.21 227.789 99.21ZM249.033 78H252.933V99H249.033V78ZM238.173 99H234.273V78H238.173V99ZM249.333 90H237.843V86.67H249.333V90ZM268.07 99V95.76L267.86 95.07V89.4C267.86 88.3 267.53 87.45 266.87 86.85C266.21 86.23 265.21 85.92 263.87 85.92C262.97 85.92 262.08 86.06 261.2 86.34C260.34 86.62 259.61 87.01 259.01 87.51L257.54 84.78C258.4 84.12 259.42 83.63 260.6 83.31C261.8 82.97 263.04 82.8 264.32 82.8C266.64 82.8 268.43 83.36 269.69 84.48C270.97 85.58 271.61 87.29 271.61 89.61V99H268.07ZM263.03 99.21C261.83 99.21 260.78 99.01 259.88 98.61C258.98 98.19 258.28 97.62 257.78 96.9C257.3 96.16 257.06 95.33 257.06 94.41C257.06 93.51 257.27 92.7 257.69 91.98C258.13 91.26 258.84 90.69 259.82 90.27C260.8 89.85 262.1 89.64 263.72 89.64H268.37V92.13H263.99C262.71 92.13 261.85 92.34 261.41 92.76C260.97 93.16 260.75 93.66 260.75 94.26C260.75 94.94 261.02 95.48 261.56 95.88C262.1 96.28 262.85 96.48 263.81 96.48C264.73 96.48 265.55 96.27 266.27 95.85C267.01 95.43 267.54 94.81 267.86 93.99L268.49 96.24C268.13 97.18 267.48 97.91 266.54 98.43C265.62 98.95 264.45 99.21 263.03 99.21ZM285.303 99.21C284.003 99.21 282.813 98.91 281.733 98.31C280.673 97.71 279.823 96.81 279.183 95.61C278.563 94.39 278.253 92.85 278.253 90.99C278.253 89.11 278.553 87.57 279.153 86.37C279.773 85.17 280.613 84.28 281.673 83.7C282.733 83.1 283.943 82.8 285.303 82.8C286.883 82.8 288.273 83.14 289.473 83.82C290.693 84.5 291.653 85.45 292.353 86.67C293.073 87.89 293.433 89.33 293.433 90.99C293.433 92.65 293.073 94.1 292.353 95.34C291.653 96.56 290.693 97.51 289.473 98.19C288.273 98.87 286.883 99.21 285.303 99.21ZM276.423 104.82V82.98H279.993V86.76L279.873 91.02L280.173 95.28V104.82H276.423ZM284.883 96C285.783 96 286.583 95.8 287.283 95.4C288.003 95 288.573 94.42 288.993 93.66C289.413 92.9 289.623 92.01 289.623 90.99C289.623 89.95 289.413 89.06 288.993 88.32C288.573 87.56 288.003 86.98 287.283 86.58C286.583 86.18 285.783 85.98 284.883 85.98C283.983 85.98 283.173 86.18 282.453 86.58C281.733 86.98 281.163 87.56 280.743 88.32C280.323 89.06 280.113 89.95 280.113 90.99C280.113 92.01 280.323 92.9 280.743 93.66C281.163 94.42 281.733 95 282.453 95.4C283.173 95.8 283.983 96 284.883 96ZM305.869 99.21C304.569 99.21 303.379 98.91 302.299 98.31C301.239 97.71 300.389 96.81 299.749 95.61C299.129 94.39 298.819 92.85 298.819 90.99C298.819 89.11 299.119 87.57 299.719 86.37C300.339 85.17 301.179 84.28 302.239 83.7C303.299 83.1 304.509 82.8 305.869 82.8C307.449 82.8 308.839 83.14 310.039 83.82C311.259 84.5 312.219 85.45 312.919 86.67C313.639 87.89 313.999 89.33 313.999 90.99C313.999 92.65 313.639 94.1 312.919 95.34C312.219 96.56 311.259 97.51 310.039 98.19C308.839 98.87 307.449 99.21 305.869 99.21ZM296.989 104.82V82.98H300.559V86.76L300.439 91.02L300.739 95.28V104.82H296.989ZM305.449 96C306.349 96 307.149 95.8 307.849 95.4C308.569 95 309.139 94.42 309.559 93.66C309.979 92.9 310.189 92.01 310.189 90.99C310.189 89.95 309.979 89.06 309.559 88.32C309.139 87.56 308.569 86.98 307.849 86.58C307.149 86.18 306.349 85.98 305.449 85.98C304.549 85.98 303.739 86.18 303.019 86.58C302.299 86.98 301.729 87.56 301.309 88.32C300.889 89.06 300.679 89.95 300.679 90.99C300.679 92.01 300.889 92.9 301.309 93.66C301.729 94.42 302.299 95 303.019 95.4C303.739 95.8 304.549 96 305.449 96ZM318.436 105.03C317.656 105.03 316.876 104.9 316.096 104.64C315.316 104.38 314.666 104.02 314.146 103.56L315.646 100.8C316.026 101.14 316.456 101.41 316.936 101.61C317.416 101.81 317.906 101.91 318.406 101.91C319.086 101.91 319.636 101.74 320.056 101.4C320.476 101.06 320.866 100.49 321.226 99.69L322.156 97.59L322.456 97.14L328.516 82.98H332.116L324.616 100.29C324.116 101.49 323.556 102.44 322.936 103.14C322.336 103.84 321.656 104.33 320.896 104.61C320.156 104.89 319.336 105.03 318.436 105.03ZM321.736 99.57L314.506 82.98H318.406L324.286 96.81L321.736 99.57ZM66.4541 144.3C64.8541 144.3 63.3641 144.04 61.9841 143.52C60.6241 142.98 59.4341 142.23 58.4141 141.27C57.4141 140.29 56.6341 139.14 56.0741 137.82C55.5141 136.5 55.2341 135.06 55.2341 133.5C55.2341 131.94 55.5141 130.5 56.0741 129.18C56.6341 127.86 57.4241 126.72 58.4441 125.76C59.4641 124.78 60.6541 124.03 62.0141 123.51C63.3741 122.97 64.8641 122.7 66.4841 122.7C68.2041 122.7 69.7741 123 71.1941 123.6C72.6141 124.18 73.8141 125.05 74.7941 126.21L72.2741 128.58C71.5141 127.76 70.6641 127.15 69.7241 126.75C68.7841 126.33 67.7641 126.12 66.6641 126.12C65.5641 126.12 64.5541 126.3 63.6341 126.66C62.7341 127.02 61.9441 127.53 61.2641 128.19C60.6041 128.85 60.0841 129.63 59.7041 130.53C59.3441 131.43 59.1641 132.42 59.1641 133.5C59.1641 134.58 59.3441 135.57 59.7041 136.47C60.0841 137.37 60.6041 138.15 61.2641 138.81C61.9441 139.47 62.7341 139.98 63.6341 140.34C64.5541 140.7 65.5641 140.88 66.6641 140.88C67.7641 140.88 68.7841 140.68 69.7241 140.28C70.6641 139.86 71.5141 139.23 72.2741 138.39L74.7941 140.79C73.8141 141.93 72.6141 142.8 71.1941 143.4C69.7741 144 68.1941 144.3 66.4541 144.3ZM78.1709 144V121.74H81.9209V144H78.1709ZM86.8428 144V127.98H90.5928V144H86.8428ZM88.7328 125.34C88.0328 125.34 87.4528 125.12 86.9928 124.68C86.5528 124.24 86.3328 123.71 86.3328 123.09C86.3328 122.45 86.5528 121.92 86.9928 121.5C87.4528 121.06 88.0328 120.84 88.7328 120.84C89.4328 120.84 90.0028 121.05 90.4428 121.47C90.9028 121.87 91.1328 122.38 91.1328 123C91.1328 123.66 90.9128 124.22 90.4728 124.68C90.0328 125.12 89.4528 125.34 88.7328 125.34ZM103.045 144.21C101.265 144.21 99.7047 143.86 98.3647 143.16C97.0447 142.44 96.0147 141.46 95.2747 140.22C94.5547 138.98 94.1947 137.57 94.1947 135.99C94.1947 134.39 94.5447 132.98 95.2447 131.76C95.9647 130.52 96.9447 129.55 98.1847 128.85C99.4447 128.15 100.875 127.8 102.475 127.8C104.035 127.8 105.425 128.14 106.645 128.82C107.865 129.5 108.825 130.46 109.525 131.7C110.225 132.94 110.575 134.4 110.575 136.08C110.575 136.24 110.565 136.42 110.545 136.62C110.545 136.82 110.535 137.01 110.515 137.19H97.1647V134.7H108.535L107.065 135.48C107.085 134.56 106.895 133.75 106.495 133.05C106.095 132.35 105.545 131.8 104.845 131.4C104.165 131 103.375 130.8 102.475 130.8C101.555 130.8 100.745 131 100.045 131.4C99.3647 131.8 98.8247 132.36 98.4247 133.08C98.0447 133.78 97.8547 134.61 97.8547 135.57V136.17C97.8547 137.13 98.0747 137.98 98.5147 138.72C98.9547 139.46 99.5747 140.03 100.375 140.43C101.175 140.83 102.095 141.03 103.135 141.03C104.035 141.03 104.845 140.89 105.565 140.61C106.285 140.33 106.925 139.89 107.485 139.29L109.495 141.6C108.775 142.44 107.865 143.09 106.765 143.55C105.685 143.99 104.445 144.21 103.045 144.21ZM123.267 127.8C124.547 127.8 125.687 128.05 126.687 128.55C127.707 129.05 128.507 129.82 129.087 130.86C129.667 131.88 129.957 133.2 129.957 134.82V144H126.207V135.3C126.207 133.88 125.867 132.82 125.187 132.12C124.527 131.42 123.597 131.07 122.397 131.07C121.517 131.07 120.737 131.25 120.057 131.61C119.377 131.97 118.847 132.51 118.467 133.23C118.107 133.93 117.927 134.82 117.927 135.9V144H114.177V127.98H117.747V132.3L117.117 130.98C117.677 129.96 118.487 129.18 119.547 128.64C120.627 128.08 121.867 127.8 123.267 127.8ZM140.744 144.21C138.984 144.21 137.624 143.76 136.664 142.86C135.704 141.94 135.224 140.59 135.224 138.81V124.44H138.974V138.72C138.974 139.48 139.164 140.07 139.544 140.49C139.944 140.91 140.494 141.12 141.194 141.12C142.034 141.12 142.734 140.9 143.294 140.46L144.344 143.13C143.904 143.49 143.364 143.76 142.724 143.94C142.084 144.12 141.424 144.21 140.744 144.21ZM132.584 131.1V128.1H143.264V131.1H132.584ZM152.379 144.21C151.039 144.21 149.749 144.04 148.509 143.7C147.289 143.34 146.319 142.91 145.599 142.41L147.039 139.56C147.759 140.02 148.619 140.4 149.619 140.7C150.619 141 151.619 141.15 152.619 141.15C153.799 141.15 154.649 140.99 155.169 140.67C155.709 140.35 155.979 139.92 155.979 139.38C155.979 138.94 155.799 138.61 155.439 138.39C155.079 138.15 154.609 137.97 154.029 137.85C153.449 137.73 152.799 137.62 152.079 137.52C151.379 137.42 150.669 137.29 149.949 137.13C149.249 136.95 148.609 136.7 148.029 136.38C147.449 136.04 146.979 135.59 146.619 135.03C146.259 134.47 146.079 133.73 146.079 132.81C146.079 131.79 146.369 130.91 146.949 130.17C147.529 129.41 148.339 128.83 149.379 128.43C150.439 128.01 151.689 127.8 153.129 127.8C154.209 127.8 155.299 127.92 156.399 128.16C157.499 128.4 158.409 128.74 159.129 129.18L157.689 132.03C156.929 131.57 156.159 131.26 155.379 131.1C154.619 130.92 153.859 130.83 153.099 130.83C151.959 130.83 151.109 131 150.549 131.34C150.009 131.68 149.739 132.11 149.739 132.63C149.739 133.11 149.919 133.47 150.279 133.71C150.639 133.95 151.109 134.14 151.689 134.28C152.269 134.42 152.909 134.54 153.609 134.64C154.329 134.72 155.039 134.85 155.739 135.03C156.439 135.21 157.079 135.46 157.659 135.78C158.259 136.08 158.739 136.51 159.099 137.07C159.459 137.63 159.639 138.36 159.639 139.26C159.639 140.26 159.339 141.13 158.739 141.87C158.159 142.61 157.329 143.19 156.249 143.61C155.169 144.01 153.879 144.21 152.379 144.21ZM171.159 144V127.98H174.909V144H171.159ZM173.049 125.34C172.349 125.34 171.769 125.12 171.309 124.68C170.869 124.24 170.649 123.71 170.649 123.09C170.649 122.45 170.869 121.92 171.309 121.5C171.769 121.06 172.349 120.84 173.049 120.84C173.749 120.84 174.319 121.05 174.759 121.47C175.219 121.87 175.449 122.38 175.449 123C175.449 123.66 175.229 124.22 174.789 124.68C174.349 125.12 173.769 125.34 173.049 125.34ZM188.921 127.8C190.201 127.8 191.341 128.05 192.341 128.55C193.361 129.05 194.161 129.82 194.741 130.86C195.321 131.88 195.611 133.2 195.611 134.82V144H191.861V135.3C191.861 133.88 191.521 132.82 190.841 132.12C190.181 131.42 189.251 131.07 188.051 131.07C187.171 131.07 186.391 131.25 185.711 131.61C185.031 131.97 184.501 132.51 184.121 133.23C183.761 133.93 183.581 134.82 183.581 135.9V144H179.831V127.98H183.401V132.3L182.771 130.98C183.331 129.96 184.141 129.18 185.201 128.64C186.281 128.08 187.521 127.8 188.921 127.8ZM207.249 144V141.39L215.589 133.47C216.289 132.81 216.809 132.23 217.149 131.73C217.489 131.23 217.709 130.77 217.809 130.35C217.929 129.91 217.989 129.5 217.989 129.12C217.989 128.16 217.659 127.42 216.999 126.9C216.339 126.36 215.369 126.09 214.089 126.09C213.069 126.09 212.139 126.27 211.299 126.63C210.479 126.99 209.769 127.54 209.169 128.28L206.439 126.18C207.259 125.08 208.359 124.23 209.739 123.63C211.139 123.01 212.699 122.7 214.419 122.7C215.939 122.7 217.259 122.95 218.379 123.45C219.519 123.93 220.389 124.62 220.989 125.52C221.609 126.42 221.919 127.49 221.919 128.73C221.919 129.41 221.829 130.09 221.649 130.77C221.469 131.43 221.129 132.13 220.629 132.87C220.129 133.61 219.399 134.44 218.439 135.36L211.269 142.17L210.459 140.7H222.729V144H207.249ZM231.94 144.3C230.46 144.3 229.01 144.09 227.59 143.67C226.19 143.23 225.01 142.63 224.05 141.87L225.7 138.84C226.46 139.46 227.38 139.96 228.46 140.34C229.56 140.72 230.7 140.91 231.88 140.91C233.26 140.91 234.34 140.62 235.12 140.04C235.92 139.46 236.32 138.68 236.32 137.7C236.32 137.04 236.15 136.46 235.81 135.96C235.49 135.46 234.91 135.08 234.07 134.82C233.25 134.56 232.12 134.43 230.68 134.43H225.61L226.69 123H239.02V126.27H228.13L230.17 124.41L229.36 132.96L227.32 131.13H231.55C233.63 131.13 235.3 131.41 236.56 131.97C237.84 132.51 238.77 133.27 239.35 134.25C239.95 135.21 240.25 136.31 240.25 137.55C240.25 138.77 239.95 139.89 239.35 140.91C238.75 141.93 237.83 142.75 236.59 143.37C235.37 143.99 233.82 144.3 231.94 144.3ZM257.451 144V135.69L258.321 138.09L249.201 123H253.371L260.691 135.15H258.351L265.731 123H269.571L260.451 138.09L261.351 135.69V144H257.451ZM277.508 144.21C275.728 144.21 274.168 143.86 272.828 143.16C271.508 142.44 270.478 141.46 269.738 140.22C269.018 138.98 268.658 137.57 268.658 135.99C268.658 134.39 269.008 132.98 269.708 131.76C270.428 130.52 271.408 129.55 272.648 128.85C273.908 128.15 275.338 127.8 276.938 127.8C278.498 127.8 279.888 128.14 281.108 128.82C282.328 129.5 283.288 130.46 283.988 131.7C284.688 132.94 285.038 134.4 285.038 136.08C285.038 136.24 285.028 136.42 285.008 136.62C285.008 136.82 284.998 137.01 284.978 137.19H271.628V134.7H282.998L281.528 135.48C281.548 134.56 281.358 133.75 280.958 133.05C280.558 132.35 280.008 131.8 279.308 131.4C278.628 131 277.838 130.8 276.938 130.8C276.018 130.8 275.208 131 274.508 131.4C273.828 131.8 273.288 132.36 272.888 133.08C272.508 133.78 272.318 134.61 272.318 135.57V136.17C272.318 137.13 272.538 137.98 272.978 138.72C273.418 139.46 274.038 140.03 274.838 140.43C275.638 140.83 276.558 141.03 277.598 141.03C278.498 141.03 279.308 140.89 280.028 140.61C280.748 140.33 281.388 139.89 281.948 139.29L283.958 141.6C283.238 142.44 282.328 143.09 281.228 143.55C280.148 143.99 278.908 144.21 277.508 144.21ZM298.07 144V140.76L297.86 140.07V134.4C297.86 133.3 297.53 132.45 296.87 131.85C296.21 131.23 295.21 130.92 293.87 130.92C292.97 130.92 292.08 131.06 291.2 131.34C290.34 131.62 289.61 132.01 289.01 132.51L287.54 129.78C288.4 129.12 289.42 128.63 290.6 128.31C291.8 127.97 293.04 127.8 294.32 127.8C296.64 127.8 298.43 128.36 299.69 129.48C300.97 130.58 301.61 132.29 301.61 134.61V144H298.07ZM293.03 144.21C291.83 144.21 290.78 144.01 289.88 143.61C288.98 143.19 288.28 142.62 287.78 141.9C287.3 141.16 287.06 140.33 287.06 139.41C287.06 138.51 287.27 137.7 287.69 136.98C288.13 136.26 288.84 135.69 289.82 135.27C290.8 134.85 292.1 134.64 293.72 134.64H298.37V137.13H293.99C292.71 137.13 291.85 137.34 291.41 137.76C290.97 138.16 290.75 138.66 290.75 139.26C290.75 139.94 291.02 140.48 291.56 140.88C292.1 141.28 292.85 141.48 293.81 141.48C294.73 141.48 295.55 141.27 296.27 140.85C297.01 140.43 297.54 139.81 297.86 138.99L298.49 141.24C298.13 142.18 297.48 142.91 296.54 143.43C295.62 143.95 294.45 144.21 293.03 144.21ZM306.423 144V127.98H309.993V132.39L309.573 131.1C310.053 130.02 310.803 129.2 311.823 128.64C312.863 128.08 314.153 127.8 315.693 127.8V131.37C315.533 131.33 315.383 131.31 315.243 131.31C315.103 131.29 314.963 131.28 314.823 131.28C313.403 131.28 312.273 131.7 311.433 132.54C310.593 133.36 310.173 134.59 310.173 136.23V144H306.423ZM323.971 144.21C322.631 144.21 321.341 144.04 320.101 143.7C318.881 143.34 317.911 142.91 317.191 142.41L318.631 139.56C319.351 140.02 320.211 140.4 321.211 140.7C322.211 141 323.211 141.15 324.211 141.15C325.391 141.15 326.241 140.99 326.761 140.67C327.301 140.35 327.571 139.92 327.571 139.38C327.571 138.94 327.391 138.61 327.031 138.39C326.671 138.15 326.201 137.97 325.621 137.85C325.041 137.73 324.391 137.62 323.671 137.52C322.971 137.42 322.261 137.29 321.541 137.13C320.841 136.95 320.201 136.7 319.621 136.38C319.041 136.04 318.571 135.59 318.211 135.03C317.851 134.47 317.671 133.73 317.671 132.81C317.671 131.79 317.961 130.91 318.541 130.17C319.121 129.41 319.931 128.83 320.971 128.43C322.031 128.01 323.281 127.8 324.721 127.8C325.801 127.8 326.891 127.92 327.991 128.16C329.091 128.4 330.001 128.74 330.721 129.18L329.281 132.03C328.521 131.57 327.751 131.26 326.971 131.1C326.211 130.92 325.451 130.83 324.691 130.83C323.551 130.83 322.701 131 322.141 131.34C321.601 131.68 321.331 132.11 321.331 132.63C321.331 133.11 321.511 133.47 321.871 133.71C322.231 133.95 322.701 134.14 323.281 134.28C323.861 134.42 324.501 134.54 325.201 134.64C325.921 134.72 326.631 134.85 327.331 135.03C328.031 135.21 328.671 135.46 329.251 135.78C329.851 136.08 330.331 136.51 330.691 137.07C331.051 137.63 331.231 138.36 331.231 139.26C331.231 140.26 330.931 141.13 330.331 141.87C329.751 142.61 328.921 143.19 327.841 143.61C326.761 144.01 325.471 144.21 323.971 144.21Z" fill="white"/>
<path d="M374.738 99L383.408 79.56L384.428 81.3H372.518L374.378 79.41V84.87H370.748V78H387.068V80.61L378.908 99H374.738ZM397.984 99.3C396.084 99.3 394.454 98.9 393.094 98.1C391.734 97.28 390.694 96.1 389.974 94.56C389.254 93.02 388.894 91.12 388.894 88.86C388.894 86.46 389.324 84.43 390.184 82.77C391.064 81.11 392.274 79.85 393.814 78.99C395.374 78.13 397.164 77.7 399.184 77.7C400.244 77.7 401.254 77.81 402.214 78.03C403.194 78.25 404.024 78.59 404.704 79.05L403.264 81.99C402.684 81.61 402.054 81.35 401.374 81.21C400.714 81.05 400.014 80.97 399.274 80.97C397.294 80.97 395.724 81.58 394.564 82.8C393.404 84.02 392.824 85.82 392.824 88.2C392.824 88.58 392.834 89.03 392.854 89.55C392.874 90.05 392.944 90.56 393.064 91.08L391.864 89.76C392.224 88.94 392.714 88.26 393.334 87.72C393.974 87.16 394.724 86.74 395.584 86.46C396.464 86.18 397.414 86.04 398.434 86.04C399.814 86.04 401.044 86.31 402.124 86.85C403.204 87.37 404.064 88.12 404.704 89.1C405.344 90.06 405.664 91.19 405.664 92.49C405.664 93.87 405.324 95.07 404.644 96.09C403.964 97.11 403.044 97.9 401.884 98.46C400.724 99.02 399.424 99.3 397.984 99.3ZM397.774 96.24C398.574 96.24 399.284 96.1 399.904 95.82C400.524 95.52 401.004 95.1 401.344 94.56C401.704 94.02 401.884 93.39 401.884 92.67C401.884 91.57 401.504 90.7 400.744 90.06C399.984 89.42 398.964 89.1 397.684 89.1C396.844 89.1 396.104 89.26 395.464 89.58C394.844 89.88 394.344 90.3 393.964 90.84C393.604 91.38 393.424 92 393.424 92.7C393.424 93.34 393.594 93.93 393.934 94.47C394.274 95.01 394.764 95.44 395.404 95.76C396.064 96.08 396.854 96.24 397.774 96.24ZM414.663 99.3C413.183 99.3 411.733 99.09 410.313 98.67C408.913 98.23 407.733 97.63 406.773 96.87L408.423 93.84C409.183 94.46 410.103 94.96 411.183 95.34C412.283 95.72 413.423 95.91 414.603 95.91C415.983 95.91 417.063 95.62 417.843 95.04C418.643 94.46 419.043 93.68 419.043 92.7C419.043 92.04 418.873 91.46 418.533 90.96C418.213 90.46 417.633 90.08 416.793 89.82C415.973 89.56 414.843 89.43 413.403 89.43H408.333L409.413 78H421.743V81.27H410.853L412.893 79.41L412.083 87.96L410.043 86.13H414.273C416.353 86.13 418.023 86.41 419.283 86.97C420.563 87.51 421.493 88.27 422.073 89.25C422.673 90.21 422.973 91.31 422.973 92.55C422.973 93.77 422.673 94.89 422.073 95.91C421.473 96.93 420.553 97.75 419.313 98.37C418.093 98.99 416.543 99.3 414.663 99.3ZM433.982 99.3C432.322 99.3 430.822 98.88 429.482 98.04C428.162 97.2 427.122 95.98 426.362 94.38C425.602 92.76 425.222 90.8 425.222 88.5C425.222 86.2 425.602 84.25 426.362 82.65C427.122 81.03 428.162 79.8 429.482 78.96C430.822 78.12 432.322 77.7 433.982 77.7C435.662 77.7 437.162 78.12 438.482 78.96C439.802 79.8 440.842 81.03 441.602 82.65C442.382 84.25 442.772 86.2 442.772 88.5C442.772 90.8 442.382 92.76 441.602 94.38C440.842 95.98 439.802 97.2 438.482 98.04C437.162 98.88 435.662 99.3 433.982 99.3ZM433.982 95.91C434.962 95.91 435.812 95.65 436.532 95.13C437.252 94.59 437.812 93.77 438.212 92.67C438.632 91.57 438.842 90.18 438.842 88.5C438.842 86.8 438.632 85.41 438.212 84.33C437.812 83.23 437.252 82.42 436.532 81.9C435.812 81.36 434.962 81.09 433.982 81.09C433.042 81.09 432.202 81.36 431.462 81.9C430.742 82.42 430.172 83.23 429.752 84.33C429.352 85.41 429.152 86.8 429.152 88.5C429.152 90.18 429.352 91.57 429.752 92.67C430.172 93.77 430.742 94.59 431.462 95.13C432.202 95.65 433.042 95.91 433.982 95.91ZM456.039 87.78C455.359 87.78 454.779 87.55 454.299 87.09C453.819 86.61 453.579 86.01 453.579 85.29C453.579 84.53 453.819 83.93 454.299 83.49C454.779 83.03 455.359 82.8 456.039 82.8C456.719 82.8 457.299 83.03 457.779 83.49C458.259 83.93 458.499 84.53 458.499 85.29C458.499 86.01 458.259 86.61 457.779 87.09C457.299 87.55 456.719 87.78 456.039 87.78ZM456.039 99.21C455.359 99.21 454.779 98.98 454.299 98.52C453.819 98.04 453.579 97.44 453.579 96.72C453.579 95.96 453.819 95.36 454.299 94.92C454.779 94.46 455.359 94.23 456.039 94.23C456.719 94.23 457.299 94.46 457.779 94.92C458.259 95.36 458.499 95.96 458.499 96.72C458.499 97.44 458.259 98.04 457.779 98.52C457.299 98.98 456.719 99.21 456.039 99.21ZM470.814 99V78H479.454C481.314 78 482.904 78.3 484.224 78.9C485.564 79.5 486.594 80.36 487.314 81.48C488.034 82.6 488.394 83.93 488.394 85.47C488.394 87.01 488.034 88.34 487.314 89.46C486.594 90.58 485.564 91.44 484.224 92.04C482.904 92.64 481.314 92.94 479.454 92.94H472.974L474.714 91.11V99H470.814ZM474.714 91.53L472.974 89.64H479.274C480.994 89.64 482.284 89.28 483.144 88.56C484.024 87.82 484.464 86.79 484.464 85.47C484.464 84.13 484.024 83.1 483.144 82.38C482.284 81.66 480.994 81.3 479.274 81.3H472.974L474.714 79.38V91.53ZM491.782 99V82.98H495.352V87.39L494.932 86.1C495.412 85.02 496.162 84.2 497.182 83.64C498.222 83.08 499.512 82.8 501.052 82.8V86.37C500.892 86.33 500.742 86.31 500.602 86.31C500.462 86.29 500.322 86.28 500.182 86.28C498.762 86.28 497.632 86.7 496.792 87.54C495.952 88.36 495.532 89.59 495.532 91.23V99H491.782ZM511.287 99.21C509.647 99.21 508.187 98.86 506.907 98.16C505.627 97.44 504.617 96.46 503.877 95.22C503.137 93.98 502.767 92.57 502.767 90.99C502.767 89.39 503.137 87.98 503.877 86.76C504.617 85.52 505.627 84.55 506.907 83.85C508.187 83.15 509.647 82.8 511.287 82.8C512.947 82.8 514.417 83.15 515.697 83.85C516.997 84.55 518.007 85.51 518.727 86.73C519.467 87.95 519.837 89.37 519.837 90.99C519.837 92.57 519.467 93.98 518.727 95.22C518.007 96.46 516.997 97.44 515.697 98.16C514.417 98.86 512.947 99.21 511.287 99.21ZM511.287 96C512.207 96 513.027 95.8 513.747 95.4C514.467 95 515.027 94.42 515.427 93.66C515.847 92.9 516.057 92.01 516.057 90.99C516.057 89.95 515.847 89.06 515.427 88.32C515.027 87.56 514.467 86.98 513.747 86.58C513.027 86.18 512.217 85.98 511.317 85.98C510.397 85.98 509.577 86.18 508.857 86.58C508.157 86.98 507.597 87.56 507.177 88.32C506.757 89.06 506.547 89.95 506.547 90.99C506.547 92.01 506.757 92.9 507.177 93.66C507.597 94.42 508.157 95 508.857 95.4C509.577 95.8 510.387 96 511.287 96ZM521.773 105.03C521.073 105.03 520.413 104.95 519.793 104.79C519.153 104.65 518.613 104.42 518.173 104.1L519.253 101.31C519.833 101.73 520.563 101.94 521.443 101.94C522.123 101.94 522.653 101.72 523.033 101.28C523.413 100.86 523.603 100.23 523.603 99.39V82.98H527.353V99.3C527.353 101.06 526.863 102.45 525.883 103.47C524.923 104.51 523.553 105.03 521.773 105.03ZM525.463 80.34C524.763 80.34 524.183 80.12 523.723 79.68C523.283 79.24 523.063 78.71 523.063 78.09C523.063 77.45 523.283 76.92 523.723 76.5C524.183 76.06 524.763 75.84 525.463 75.84C526.163 75.84 526.733 76.05 527.173 76.47C527.633 76.87 527.863 77.38 527.863 78C527.863 78.66 527.643 79.22 527.203 79.68C526.763 80.12 526.183 80.34 525.463 80.34ZM539.801 99.21C538.021 99.21 536.461 98.86 535.121 98.16C533.801 97.44 532.771 96.46 532.031 95.22C531.311 93.98 530.951 92.57 530.951 90.99C530.951 89.39 531.301 87.98 532.001 86.76C532.721 85.52 533.701 84.55 534.941 83.85C536.201 83.15 537.631 82.8 539.231 82.8C540.791 82.8 542.181 83.14 543.401 83.82C544.621 84.5 545.581 85.46 546.281 86.7C546.981 87.94 547.331 89.4 547.331 91.08C547.331 91.24 547.321 91.42 547.301 91.62C547.301 91.82 547.291 92.01 547.271 92.19H533.921V89.7H545.291L543.821 90.48C543.841 89.56 543.651 88.75 543.251 88.05C542.851 87.35 542.301 86.8 541.601 86.4C540.921 86 540.131 85.8 539.231 85.8C538.311 85.8 537.501 86 536.801 86.4C536.121 86.8 535.581 87.36 535.181 88.08C534.801 88.78 534.611 89.61 534.611 90.57V91.17C534.611 92.13 534.831 92.98 535.271 93.72C535.711 94.46 536.331 95.03 537.131 95.43C537.931 95.83 538.851 96.03 539.891 96.03C540.791 96.03 541.601 95.89 542.321 95.61C543.041 95.33 543.681 94.89 544.241 94.29L546.251 96.6C545.531 97.44 544.621 98.09 543.521 98.55C542.441 98.99 541.201 99.21 539.801 99.21ZM558.283 99.21C556.603 99.21 555.103 98.86 553.783 98.16C552.483 97.44 551.463 96.46 550.723 95.22C549.983 93.98 549.613 92.57 549.613 90.99C549.613 89.39 549.983 87.98 550.723 86.76C551.463 85.52 552.483 84.55 553.783 83.85C555.103 83.15 556.603 82.8 558.283 82.8C559.843 82.8 561.213 83.12 562.393 83.76C563.593 84.38 564.503 85.3 565.123 86.52L562.243 88.2C561.763 87.44 561.173 86.88 560.473 86.52C559.793 86.16 559.053 85.98 558.253 85.98C557.333 85.98 556.503 86.18 555.763 86.58C555.023 86.98 554.443 87.56 554.023 88.32C553.603 89.06 553.393 89.95 553.393 90.99C553.393 92.03 553.603 92.93 554.023 93.69C554.443 94.43 555.023 95 555.763 95.4C556.503 95.8 557.333 96 558.253 96C559.053 96 559.793 95.82 560.473 95.46C561.173 95.1 561.763 94.54 562.243 93.78L565.123 95.46C564.503 96.66 563.593 97.59 562.393 98.25C561.213 98.89 559.843 99.21 558.283 99.21ZM574.599 99.21C572.839 99.21 571.479 98.76 570.519 97.86C569.559 96.94 569.079 95.59 569.079 93.81V79.44H572.829V93.72C572.829 94.48 573.019 95.07 573.399 95.49C573.799 95.91 574.349 96.12 575.049 96.12C575.889 96.12 576.589 95.9 577.149 95.46L578.199 98.13C577.759 98.49 577.219 98.76 576.579 98.94C575.939 99.12 575.279 99.21 574.599 99.21ZM566.439 86.1V83.1H577.119V86.1H566.439ZM586.234 99.21C584.894 99.21 583.604 99.04 582.364 98.7C581.144 98.34 580.174 97.91 579.454 97.41L580.894 94.56C581.614 95.02 582.474 95.4 583.474 95.7C584.474 96 585.474 96.15 586.474 96.15C587.654 96.15 588.504 95.99 589.024 95.67C589.564 95.35 589.834 94.92 589.834 94.38C589.834 93.94 589.654 93.61 589.294 93.39C588.934 93.15 588.464 92.97 587.884 92.85C587.304 92.73 586.654 92.62 585.934 92.52C585.234 92.42 584.524 92.29 583.804 92.13C583.104 91.95 582.464 91.7 581.884 91.38C581.304 91.04 580.834 90.59 580.474 90.03C580.114 89.47 579.934 88.73 579.934 87.81C579.934 86.79 580.224 85.91 580.804 85.17C581.384 84.41 582.194 83.83 583.234 83.43C584.294 83.01 585.544 82.8 586.984 82.8C588.064 82.8 589.154 82.92 590.254 83.16C591.354 83.4 592.264 83.74 592.984 84.18L591.544 87.03C590.784 86.57 590.014 86.26 589.234 86.1C588.474 85.92 587.714 85.83 586.954 85.83C585.814 85.83 584.964 86 584.404 86.34C583.864 86.68 583.594 87.11 583.594 87.63C583.594 88.11 583.774 88.47 584.134 88.71C584.494 88.95 584.964 89.14 585.544 89.28C586.124 89.42 586.764 89.54 587.464 89.64C588.184 89.72 588.894 89.85 589.594 90.03C590.294 90.21 590.934 90.46 591.514 90.78C592.114 91.08 592.594 91.51 592.954 92.07C593.314 92.63 593.494 93.36 593.494 94.26C593.494 95.26 593.194 96.13 592.594 96.87C592.014 97.61 591.184 98.19 590.104 98.61C589.024 99.01 587.734 99.21 586.234 99.21ZM615.095 99.3C613.495 99.3 612.005 99.04 610.625 98.52C609.265 97.98 608.075 97.23 607.055 96.27C606.055 95.29 605.275 94.14 604.715 92.82C604.155 91.5 603.875 90.06 603.875 88.5C603.875 86.94 604.155 85.5 604.715 84.18C605.275 82.86 606.065 81.72 607.085 80.76C608.105 79.78 609.295 79.03 610.655 78.51C612.015 77.97 613.505 77.7 615.125 77.7C616.845 77.7 618.415 78 619.835 78.6C621.255 79.18 622.455 80.05 623.435 81.21L620.915 83.58C620.155 82.76 619.305 82.15 618.365 81.75C617.425 81.33 616.405 81.12 615.305 81.12C614.205 81.12 613.195 81.3 612.275 81.66C611.375 82.02 610.585 82.53 609.905 83.19C609.245 83.85 608.725 84.63 608.345 85.53C607.985 86.43 607.805 87.42 607.805 88.5C607.805 89.58 607.985 90.57 608.345 91.47C608.725 92.37 609.245 93.15 609.905 93.81C610.585 94.47 611.375 94.98 612.275 95.34C613.195 95.7 614.205 95.88 615.305 95.88C616.405 95.88 617.425 95.68 618.365 95.28C619.305 94.86 620.155 94.23 620.915 93.39L623.435 95.79C622.455 96.93 621.255 97.8 619.835 98.4C618.415 99 616.835 99.3 615.095 99.3ZM633.396 99.21C631.756 99.21 630.296 98.86 629.016 98.16C627.736 97.44 626.726 96.46 625.986 95.22C625.246 93.98 624.876 92.57 624.876 90.99C624.876 89.39 625.246 87.98 625.986 86.76C626.726 85.52 627.736 84.55 629.016 83.85C630.296 83.15 631.756 82.8 633.396 82.8C635.056 82.8 636.526 83.15 637.806 83.85C639.106 84.55 640.116 85.51 640.836 86.73C641.576 87.95 641.946 89.37 641.946 90.99C641.946 92.57 641.576 93.98 640.836 95.22C640.116 96.46 639.106 97.44 637.806 98.16C636.526 98.86 635.056 99.21 633.396 99.21ZM633.396 96C634.316 96 635.136 95.8 635.856 95.4C636.576 95 637.136 94.42 637.536 93.66C637.956 92.9 638.166 92.01 638.166 90.99C638.166 89.95 637.956 89.06 637.536 88.32C637.136 87.56 636.576 86.98 635.856 86.58C635.136 86.18 634.326 85.98 633.426 85.98C632.506 85.98 631.686 86.18 630.966 86.58C630.266 86.98 629.706 87.56 629.286 88.32C628.866 89.06 628.656 89.95 628.656 90.99C628.656 92.01 628.866 92.9 629.286 93.66C629.706 94.42 630.266 95 630.966 95.4C631.686 95.8 632.496 96 633.396 96ZM665.752 82.8C667.032 82.8 668.162 83.05 669.142 83.55C670.142 84.05 670.922 84.82 671.482 85.86C672.042 86.88 672.322 88.2 672.322 89.82V99H668.572V90.3C668.572 88.88 668.262 87.82 667.642 87.12C667.022 86.42 666.132 86.07 664.972 86.07C664.152 86.07 663.422 86.25 662.782 86.61C662.162 86.97 661.672 87.5 661.312 88.2C660.972 88.9 660.802 89.79 660.802 90.87V99H657.052V90.3C657.052 88.88 656.742 87.82 656.122 87.12C655.502 86.42 654.612 86.07 653.452 86.07C652.632 86.07 651.902 86.25 651.262 86.61C650.642 86.97 650.152 87.5 649.792 88.2C649.452 88.9 649.282 89.79 649.282 90.87V99H645.532V82.98H649.102V87.24L648.472 85.98C649.012 84.94 649.792 84.15 650.812 83.61C651.852 83.07 653.032 82.8 654.352 82.8C655.852 82.8 657.152 83.17 658.252 83.91C659.372 84.65 660.112 85.77 660.472 87.27L659.002 86.76C659.522 85.56 660.382 84.6 661.582 83.88C662.782 83.16 664.172 82.8 665.752 82.8ZM685.994 99.21C684.694 99.21 683.504 98.91 682.424 98.31C681.364 97.71 680.514 96.81 679.874 95.61C679.254 94.39 678.944 92.85 678.944 90.99C678.944 89.11 679.244 87.57 679.844 86.37C680.464 85.17 681.304 84.28 682.364 83.7C683.424 83.1 684.634 82.8 685.994 82.8C687.574 82.8 688.964 83.14 690.164 83.82C691.384 84.5 692.344 85.45 693.044 86.67C693.764 87.89 694.124 89.33 694.124 90.99C694.124 92.65 693.764 94.1 693.044 95.34C692.344 96.56 691.384 97.51 690.164 98.19C688.964 98.87 687.574 99.21 685.994 99.21ZM677.114 104.82V82.98H680.684V86.76L680.564 91.02L680.864 95.28V104.82H677.114ZM685.574 96C686.474 96 687.274 95.8 687.974 95.4C688.694 95 689.264 94.42 689.684 93.66C690.104 92.9 690.314 92.01 690.314 90.99C690.314 89.95 690.104 89.06 689.684 88.32C689.264 87.56 688.694 86.98 687.974 86.58C687.274 86.18 686.474 85.98 685.574 85.98C684.674 85.98 683.864 86.18 683.144 86.58C682.424 86.98 681.854 87.56 681.434 88.32C681.014 89.06 680.804 89.95 680.804 90.99C680.804 92.01 681.014 92.9 681.434 93.66C681.854 94.42 682.424 95 683.144 95.4C683.864 95.8 684.674 96 685.574 96ZM697.681 99V76.74H701.431V99H697.681ZM713.883 99.21C712.103 99.21 710.543 98.86 709.203 98.16C707.883 97.44 706.853 96.46 706.113 95.22C705.393 93.98 705.033 92.57 705.033 90.99C705.033 89.39 705.383 87.98 706.083 86.76C706.803 85.52 707.783 84.55 709.023 83.85C710.283 83.15 711.713 82.8 713.313 82.8C714.873 82.8 716.263 83.14 717.483 83.82C718.703 84.5 719.663 85.46 720.363 86.7C721.063 87.94 721.413 89.4 721.413 91.08C721.413 91.24 721.403 91.42 721.383 91.62C721.383 91.82 721.373 92.01 721.353 92.19H708.003V89.7H719.373L717.903 90.48C717.923 89.56 717.733 88.75 717.333 88.05C716.933 87.35 716.383 86.8 715.683 86.4C715.003 86 714.213 85.8 713.313 85.8C712.393 85.8 711.583 86 710.883 86.4C710.203 86.8 709.663 87.36 709.263 88.08C708.883 88.78 708.693 89.61 708.693 90.57V91.17C708.693 92.13 708.913 92.98 709.353 93.72C709.793 94.46 710.413 95.03 711.213 95.43C712.013 95.83 712.933 96.03 713.973 96.03C714.873 96.03 715.683 95.89 716.403 95.61C717.123 95.33 717.763 94.89 718.323 94.29L720.333 96.6C719.613 97.44 718.703 98.09 717.603 98.55C716.523 98.99 715.283 99.21 713.883 99.21ZM731.045 99.21C729.285 99.21 727.925 98.76 726.965 97.86C726.005 96.94 725.525 95.59 725.525 93.81V79.44H729.275V93.72C729.275 94.48 729.465 95.07 729.845 95.49C730.245 95.91 730.795 96.12 731.495 96.12C732.335 96.12 733.035 95.9 733.595 95.46L734.645 98.13C734.205 98.49 733.665 98.76 733.025 98.94C732.385 99.12 731.725 99.21 731.045 99.21ZM722.885 86.1V83.1H733.565V86.1H722.885ZM744.732 99.21C742.952 99.21 741.392 98.86 740.052 98.16C738.732 97.44 737.702 96.46 736.962 95.22C736.242 93.98 735.882 92.57 735.882 90.99C735.882 89.39 736.232 87.98 736.932 86.76C737.652 85.52 738.632 84.55 739.872 83.85C741.132 83.15 742.562 82.8 744.162 82.8C745.722 82.8 747.112 83.14 748.332 83.82C749.552 84.5 750.512 85.46 751.212 86.7C751.912 87.94 752.262 89.4 752.262 91.08C752.262 91.24 752.252 91.42 752.232 91.62C752.232 91.82 752.222 92.01 752.202 92.19H738.852V89.7H750.222L748.752 90.48C748.772 89.56 748.582 88.75 748.182 88.05C747.782 87.35 747.232 86.8 746.532 86.4C745.852 86 745.062 85.8 744.162 85.8C743.242 85.8 742.432 86 741.732 86.4C741.052 86.8 740.512 87.36 740.112 88.08C739.732 88.78 739.542 89.61 739.542 90.57V91.17C739.542 92.13 739.762 92.98 740.202 93.72C740.642 94.46 741.262 95.03 742.062 95.43C742.862 95.83 743.782 96.03 744.822 96.03C745.722 96.03 746.532 95.89 747.252 95.61C747.972 95.33 748.612 94.89 749.172 94.29L751.182 96.6C750.462 97.44 749.552 98.09 748.452 98.55C747.372 98.99 746.132 99.21 744.732 99.21ZM762.644 99.21C761.104 99.21 759.714 98.87 758.474 98.19C757.254 97.49 756.294 96.53 755.594 95.31C754.894 94.09 754.544 92.65 754.544 90.99C754.544 89.33 754.894 87.89 755.594 86.67C756.294 85.45 757.254 84.5 758.474 83.82C759.714 83.14 761.104 82.8 762.644 82.8C763.984 82.8 765.184 83.1 766.244 83.7C767.304 84.28 768.144 85.17 768.764 86.37C769.384 87.57 769.694 89.11 769.694 90.99C769.694 92.85 769.394 94.39 768.794 95.61C768.194 96.81 767.364 97.71 766.304 98.31C765.244 98.91 764.024 99.21 762.644 99.21ZM763.094 96C763.994 96 764.794 95.8 765.494 95.4C766.214 95 766.784 94.42 767.204 93.66C767.644 92.9 767.864 92.01 767.864 90.99C767.864 89.95 767.644 89.06 767.204 88.32C766.784 87.56 766.214 86.98 765.494 86.58C764.794 86.18 763.994 85.98 763.094 85.98C762.194 85.98 761.384 86.18 760.664 86.58C759.964 86.98 759.394 87.56 758.954 88.32C758.534 89.06 758.324 89.95 758.324 90.99C758.324 92.01 758.534 92.9 758.954 93.66C759.394 94.42 759.964 95 760.664 95.4C761.384 95.8 762.194 96 763.094 96ZM767.954 99V95.22L768.104 90.96L767.804 86.7V76.74H771.524V99H767.954ZM511.416 144.3C509.776 144.3 508.266 144.03 506.886 143.49C505.506 142.95 504.306 142.2 503.286 141.24C502.266 140.26 501.476 139.12 500.916 137.82C500.356 136.5 500.076 135.06 500.076 133.5C500.076 131.94 500.356 130.51 500.916 129.21C501.476 127.89 502.266 126.75 503.286 125.79C504.306 124.81 505.506 124.05 506.886 123.51C508.266 122.97 509.766 122.7 511.386 122.7C513.026 122.7 514.526 122.97 515.886 123.51C517.266 124.05 518.466 124.81 519.486 125.79C520.506 126.75 521.296 127.89 521.856 129.21C522.416 130.51 522.696 131.94 522.696 133.5C522.696 135.06 522.416 136.5 521.856 137.82C521.296 139.14 520.506 140.28 519.486 141.24C518.466 142.2 517.266 142.95 515.886 143.49C514.526 144.03 513.036 144.3 511.416 144.3ZM511.386 140.88C512.446 140.88 513.426 140.7 514.326 140.34C515.226 139.98 516.006 139.47 516.666 138.81C517.326 138.13 517.836 137.35 518.196 136.47C518.576 135.57 518.766 134.58 518.766 133.5C518.766 132.42 518.576 131.44 518.196 130.56C517.836 129.66 517.326 128.88 516.666 128.22C516.006 127.54 515.226 127.02 514.326 126.66C513.426 126.3 512.446 126.12 511.386 126.12C510.326 126.12 509.346 126.3 508.446 126.66C507.566 127.02 506.786 127.54 506.106 128.22C505.446 128.88 504.926 129.66 504.546 130.56C504.186 131.44 504.006 132.42 504.006 133.5C504.006 134.56 504.186 135.54 504.546 136.44C504.926 137.34 505.446 138.13 506.106 138.81C506.766 139.47 507.546 139.98 508.446 140.34C509.346 140.7 510.326 140.88 511.386 140.88ZM535.56 127.8C536.84 127.8 537.98 128.05 538.98 128.55C540 129.05 540.8 129.82 541.38 130.86C541.96 131.88 542.25 133.2 542.25 134.82V144H538.5V135.3C538.5 133.88 538.16 132.82 537.48 132.12C536.82 131.42 535.89 131.07 534.69 131.07C533.81 131.07 533.03 131.25 532.35 131.61C531.67 131.97 531.14 132.51 530.76 133.23C530.4 133.93 530.22 134.82 530.22 135.9V144H526.47V127.98H530.04V132.3L529.41 130.98C529.97 129.96 530.78 129.18 531.84 128.64C532.92 128.08 534.16 127.8 535.56 127.8ZM553.037 144.21C551.277 144.21 549.917 143.76 548.957 142.86C547.997 141.94 547.517 140.59 547.517 138.81V124.44H551.267V138.72C551.267 139.48 551.457 140.07 551.837 140.49C552.237 140.91 552.787 141.12 553.487 141.12C554.327 141.12 555.027 140.9 555.587 140.46L556.637 143.13C556.197 143.49 555.657 143.76 555.017 143.94C554.377 144.12 553.717 144.21 553.037 144.21ZM544.877 131.1V128.1H555.557V131.1H544.877ZM568.812 127.8C570.092 127.8 571.232 128.05 572.232 128.55C573.252 129.05 574.052 129.82 574.632 130.86C575.212 131.88 575.502 133.2 575.502 134.82V144H571.752V135.3C571.752 133.88 571.412 132.82 570.732 132.12C570.072 131.42 569.142 131.07 567.942 131.07C567.062 131.07 566.282 131.25 565.602 131.61C564.922 131.97 564.392 132.51 564.012 133.23C563.652 133.93 563.472 134.82 563.472 135.9V144H559.722V121.74H563.472V132.3L562.662 130.98C563.222 129.96 564.032 129.18 565.092 128.64C566.172 128.08 567.412 127.8 568.812 127.8ZM587.818 144.21C586.038 144.21 584.478 143.86 583.138 143.16C581.818 142.44 580.788 141.46 580.048 140.22C579.328 138.98 578.968 137.57 578.968 135.99C578.968 134.39 579.318 132.98 580.018 131.76C580.738 130.52 581.718 129.55 582.958 128.85C584.218 128.15 585.648 127.8 587.248 127.8C588.808 127.8 590.198 128.14 591.418 128.82C592.638 129.5 593.598 130.46 594.298 131.7C594.998 132.94 595.348 134.4 595.348 136.08C595.348 136.24 595.338 136.42 595.318 136.62C595.318 136.82 595.308 137.01 595.288 137.19H581.938V134.7H593.308L591.838 135.48C591.858 134.56 591.668 133.75 591.268 133.05C590.868 132.35 590.318 131.8 589.618 131.4C588.938 131 588.148 130.8 587.248 130.8C586.328 130.8 585.518 131 584.818 131.4C584.138 131.8 583.598 132.36 583.198 133.08C582.818 133.78 582.628 134.61 582.628 135.57V136.17C582.628 137.13 582.848 137.98 583.288 138.72C583.728 139.46 584.348 140.03 585.148 140.43C585.948 140.83 586.868 141.03 587.908 141.03C588.808 141.03 589.618 140.89 590.338 140.61C591.058 140.33 591.698 139.89 592.258 139.29L594.268 141.6C593.548 142.44 592.638 143.09 591.538 143.55C590.458 143.99 589.218 144.21 587.818 144.21ZM612.551 144L605.591 123H609.641L615.851 141.99H613.841L620.291 123H623.891L630.161 141.99H628.211L634.571 123H638.291L631.331 144H627.191L621.461 126.87H622.541L616.721 144H612.551ZM647.107 144.21C645.467 144.21 644.007 143.86 642.727 143.16C641.447 142.44 640.437 141.46 639.697 140.22C638.957 138.98 638.587 137.57 638.587 135.99C638.587 134.39 638.957 132.98 639.697 131.76C640.437 130.52 641.447 129.55 642.727 128.85C644.007 128.15 645.467 127.8 647.107 127.8C648.767 127.8 650.237 128.15 651.517 128.85C652.817 129.55 653.827 130.51 654.547 131.73C655.287 132.95 655.657 134.37 655.657 135.99C655.657 137.57 655.287 138.98 654.547 140.22C653.827 141.46 652.817 142.44 651.517 143.16C650.237 143.86 648.767 144.21 647.107 144.21ZM647.107 141C648.027 141 648.847 140.8 649.567 140.4C650.287 140 650.847 139.42 651.247 138.66C651.667 137.9 651.877 137.01 651.877 135.99C651.877 134.95 651.667 134.06 651.247 133.32C650.847 132.56 650.287 131.98 649.567 131.58C648.847 131.18 648.037 130.98 647.137 130.98C646.217 130.98 645.397 131.18 644.677 131.58C643.977 131.98 643.417 132.56 642.997 133.32C642.577 134.06 642.367 134.95 642.367 135.99C642.367 137.01 642.577 137.9 642.997 138.66C643.417 139.42 643.977 140 644.677 140.4C645.397 140.8 646.207 141 647.107 141ZM659.243 144V127.98H662.813V132.39L662.393 131.1C662.873 130.02 663.623 129.2 664.643 128.64C665.683 128.08 666.973 127.8 668.513 127.8V131.37C668.353 131.33 668.203 131.31 668.063 131.31C667.923 131.29 667.783 131.28 667.643 131.28C666.223 131.28 665.093 131.7 664.253 132.54C663.413 133.36 662.993 134.59 662.993 136.23V144H659.243ZM671.694 144V121.74H675.444V144H671.694ZM687.146 144.21C685.606 144.21 684.216 143.87 682.976 143.19C681.756 142.49 680.796 141.53 680.096 140.31C679.396 139.09 679.046 137.65 679.046 135.99C679.046 134.33 679.396 132.89 680.096 131.67C680.796 130.45 681.756 129.5 682.976 128.82C684.216 128.14 685.606 127.8 687.146 127.8C688.486 127.8 689.686 128.1 690.746 128.7C691.806 129.28 692.646 130.17 693.266 131.37C693.886 132.57 694.196 134.11 694.196 135.99C694.196 137.85 693.896 139.39 693.296 140.61C692.696 141.81 691.866 142.71 690.806 143.31C689.746 143.91 688.526 144.21 687.146 144.21ZM687.596 141C688.496 141 689.296 140.8 689.996 140.4C690.716 140 691.286 139.42 691.706 138.66C692.146 137.9 692.366 137.01 692.366 135.99C692.366 134.95 692.146 134.06 691.706 133.32C691.286 132.56 690.716 131.98 689.996 131.58C689.296 131.18 688.496 130.98 687.596 130.98C686.696 130.98 685.886 131.18 685.166 131.58C684.466 131.98 683.896 132.56 683.456 133.32C683.036 134.06 682.826 134.95 682.826 135.99C682.826 137.01 683.036 137.9 683.456 138.66C683.896 139.42 684.466 140 685.166 140.4C685.886 140.8 686.696 141 687.596 141ZM692.456 144V140.22L692.606 135.96L692.306 131.7V121.74H696.026V144H692.456ZM704.502 144L698.622 127.98H702.162L707.202 142.11H705.522L710.802 127.98H713.952L719.082 142.11H717.432L722.622 127.98H725.952L720.042 144H716.442L711.762 131.49H712.872L708.102 144H704.502ZM728.53 144V127.98H732.28V144H728.53ZM730.42 125.34C729.72 125.34 729.14 125.12 728.68 124.68C728.24 124.24 728.02 123.71 728.02 123.09C728.02 122.45 728.24 121.92 728.68 121.5C729.14 121.06 729.72 120.84 730.42 120.84C731.12 120.84 731.69 121.05 732.13 121.47C732.59 121.87 732.82 122.38 732.82 123C732.82 123.66 732.6 124.22 732.16 124.68C731.72 125.12 731.14 125.34 730.42 125.34ZM743.982 144.21C742.442 144.21 741.052 143.87 739.812 143.19C738.592 142.49 737.632 141.53 736.932 140.31C736.232 139.09 735.882 137.65 735.882 135.99C735.882 134.33 736.232 132.89 736.932 131.67C737.632 130.45 738.592 129.5 739.812 128.82C741.052 128.14 742.442 127.8 743.982 127.8C745.322 127.8 746.522 128.1 747.582 128.7C748.642 129.28 749.482 130.17 750.102 131.37C750.722 132.57 751.032 134.11 751.032 135.99C751.032 137.85 750.732 139.39 750.132 140.61C749.532 141.81 748.702 142.71 747.642 143.31C746.582 143.91 745.362 144.21 743.982 144.21ZM744.432 141C745.332 141 746.132 140.8 746.832 140.4C747.552 140 748.122 139.42 748.542 138.66C748.982 137.9 749.202 137.01 749.202 135.99C749.202 134.95 748.982 134.06 748.542 133.32C748.122 132.56 747.552 131.98 746.832 131.58C746.132 131.18 745.332 130.98 744.432 130.98C743.532 130.98 742.722 131.18 742.002 131.58C741.302 131.98 740.732 132.56 740.292 133.32C739.872 134.06 739.662 134.95 739.662 135.99C739.662 137.01 739.872 137.9 740.292 138.66C740.732 139.42 741.302 140 742.002 140.4C742.722 140.8 743.532 141 744.432 141ZM749.292 144V140.22L749.442 135.96L749.142 131.7V121.74H752.862V144H749.292ZM765.328 144.21C763.548 144.21 761.988 143.86 760.648 143.16C759.328 142.44 758.298 141.46 757.558 140.22C756.838 138.98 756.478 137.57 756.478 135.99C756.478 134.39 756.828 132.98 757.528 131.76C758.248 130.52 759.228 129.55 760.468 128.85C761.728 128.15 763.158 127.8 764.758 127.8C766.318 127.8 767.708 128.14 768.928 128.82C770.148 129.5 771.108 130.46 771.808 131.7C772.508 132.94 772.858 134.4 772.858 136.08C772.858 136.24 772.848 136.42 772.828 136.62C772.828 136.82 772.818 137.01 772.798 137.19H759.448V134.7H770.818L769.348 135.48C769.368 134.56 769.178 133.75 768.778 133.05C768.378 132.35 767.828 131.8 767.128 131.4C766.448 131 765.658 130.8 764.758 130.8C763.838 130.8 763.028 131 762.328 131.4C761.648 131.8 761.108 132.36 760.708 133.08C760.328 133.78 760.138 134.61 760.138 135.57V136.17C760.138 137.13 760.358 137.98 760.798 138.72C761.238 139.46 761.858 140.03 762.658 140.43C763.458 140.83 764.378 141.03 765.418 141.03C766.318 141.03 767.128 140.89 767.848 140.61C768.568 140.33 769.208 139.89 769.768 139.29L771.778 141.6C771.058 142.44 770.148 143.09 769.048 143.55C767.968 143.99 766.728 144.21 765.328 144.21Z" fill="white"/>
<path d="M868.878 99.3C867.278 99.3 865.788 99.04 864.408 98.52C863.048 97.98 861.858 97.23 860.838 96.27C859.838 95.29 859.058 94.14 858.498 92.82C857.938 91.5 857.658 90.06 857.658 88.5C857.658 86.94 857.938 85.5 858.498 84.18C859.058 82.86 859.848 81.72 860.868 80.76C861.888 79.78 863.078 79.03 864.438 78.51C865.798 77.97 867.288 77.7 868.908 77.7C870.628 77.7 872.198 78 873.618 78.6C875.038 79.18 876.238 80.05 877.218 81.21L874.698 83.58C873.938 82.76 873.088 82.15 872.148 81.75C871.208 81.33 870.188 81.12 869.088 81.12C867.988 81.12 866.978 81.3 866.058 81.66C865.158 82.02 864.368 82.53 863.688 83.19C863.028 83.85 862.508 84.63 862.128 85.53C861.768 86.43 861.588 87.42 861.588 88.5C861.588 89.58 861.768 90.57 862.128 91.47C862.508 92.37 863.028 93.15 863.688 93.81C864.368 94.47 865.158 94.98 866.058 95.34C866.978 95.7 867.988 95.88 869.088 95.88C870.188 95.88 871.208 95.68 872.148 95.28C873.088 94.86 873.938 94.23 874.698 93.39L877.218 95.79C876.238 96.93 875.038 97.8 873.618 98.4C872.198 99 870.618 99.3 868.878 99.3ZM890.318 99V95.76L890.108 95.07V89.4C890.108 88.3 889.778 87.45 889.118 86.85C888.458 86.23 887.458 85.92 886.118 85.92C885.218 85.92 884.328 86.06 883.448 86.34C882.588 86.62 881.858 87.01 881.258 87.51L879.788 84.78C880.648 84.12 881.668 83.63 882.848 83.31C884.048 82.97 885.288 82.8 886.568 82.8C888.888 82.8 890.678 83.36 891.938 84.48C893.218 85.58 893.858 87.29 893.858 89.61V99H890.318ZM885.278 99.21C884.078 99.21 883.028 99.01 882.128 98.61C881.228 98.19 880.528 97.62 880.028 96.9C879.548 96.16 879.308 95.33 879.308 94.41C879.308 93.51 879.518 92.7 879.938 91.98C880.378 91.26 881.088 90.69 882.068 90.27C883.048 89.85 884.348 89.64 885.968 89.64H890.618V92.13H886.238C884.958 92.13 884.098 92.34 883.658 92.76C883.218 93.16 882.998 93.66 882.998 94.26C882.998 94.94 883.268 95.48 883.808 95.88C884.348 96.28 885.098 96.48 886.058 96.48C886.978 96.48 887.798 96.27 888.518 95.85C889.258 95.43 889.788 94.81 890.108 93.99L890.738 96.24C890.378 97.18 889.728 97.91 888.788 98.43C887.868 98.95 886.698 99.21 885.278 99.21ZM898.671 99V76.74H902.421V99H898.671ZM907.343 99V76.74H911.093V99H907.343ZM933.696 99.3C930.816 99.3 928.556 98.49 926.916 96.87C925.296 95.25 924.486 92.91 924.486 89.85V78H928.386V89.7C928.386 91.86 928.846 93.43 929.766 94.41C930.706 95.39 932.026 95.88 933.726 95.88C935.426 95.88 936.736 95.39 937.656 94.41C938.576 93.43 939.036 91.86 939.036 89.7V78H942.876V89.85C942.876 92.91 942.056 95.25 940.416 96.87C938.796 98.49 936.556 99.3 933.696 99.3ZM952.928 99.21C951.588 99.21 950.298 99.04 949.058 98.7C947.838 98.34 946.868 97.91 946.148 97.41L947.588 94.56C948.308 95.02 949.168 95.4 950.168 95.7C951.168 96 952.168 96.15 953.168 96.15C954.348 96.15 955.198 95.99 955.718 95.67C956.258 95.35 956.528 94.92 956.528 94.38C956.528 93.94 956.348 93.61 955.988 93.39C955.628 93.15 955.158 92.97 954.578 92.85C953.998 92.73 953.348 92.62 952.628 92.52C951.928 92.42 951.218 92.29 950.498 92.13C949.798 91.95 949.158 91.7 948.578 91.38C947.998 91.04 947.528 90.59 947.168 90.03C946.808 89.47 946.628 88.73 946.628 87.81C946.628 86.79 946.918 85.91 947.498 85.17C948.078 84.41 948.888 83.83 949.928 83.43C950.988 83.01 952.238 82.8 953.678 82.8C954.758 82.8 955.848 82.92 956.948 83.16C958.048 83.4 958.958 83.74 959.678 84.18L958.238 87.03C957.478 86.57 956.708 86.26 955.928 86.1C955.168 85.92 954.408 85.83 953.648 85.83C952.508 85.83 951.658 86 951.098 86.34C950.558 86.68 950.288 87.11 950.288 87.63C950.288 88.11 950.468 88.47 950.828 88.71C951.188 88.95 951.658 89.14 952.238 89.28C952.818 89.42 953.458 89.54 954.158 89.64C954.878 89.72 955.588 89.85 956.288 90.03C956.988 90.21 957.628 90.46 958.208 90.78C958.808 91.08 959.288 91.51 959.648 92.07C960.008 92.63 960.188 93.36 960.188 94.26C960.188 95.26 959.888 96.13 959.288 96.87C958.708 97.61 957.878 98.19 956.798 98.61C955.718 99.01 954.428 99.21 952.928 99.21ZM970.197 99.21C968.657 99.21 967.267 98.87 966.027 98.19C964.807 97.49 963.847 96.53 963.147 95.31C962.447 94.09 962.097 92.65 962.097 90.99C962.097 89.33 962.447 87.89 963.147 86.67C963.847 85.45 964.807 84.5 966.027 83.82C967.267 83.14 968.657 82.8 970.197 82.8C971.537 82.8 972.737 83.1 973.797 83.7C974.857 84.28 975.697 85.17 976.317 86.37C976.937 87.57 977.247 89.11 977.247 90.99C977.247 92.85 976.947 94.39 976.347 95.61C975.747 96.81 974.917 97.71 973.857 98.31C972.797 98.91 971.577 99.21 970.197 99.21ZM970.647 96C971.547 96 972.347 95.8 973.047 95.4C973.767 95 974.337 94.42 974.757 93.66C975.197 92.9 975.417 92.01 975.417 90.99C975.417 89.95 975.197 89.06 974.757 88.32C974.337 87.56 973.767 86.98 973.047 86.58C972.347 86.18 971.547 85.98 970.647 85.98C969.747 85.98 968.937 86.18 968.217 86.58C967.517 86.98 966.947 87.56 966.507 88.32C966.087 89.06 965.877 89.95 965.877 90.99C965.877 92.01 966.087 92.9 966.507 93.66C966.947 94.42 967.517 95 968.217 95.4C968.937 95.8 969.747 96 970.647 96ZM975.507 99V95.22L975.657 90.96L975.357 86.7V76.74H979.077V99H975.507ZM984.013 99V82.98H987.763V99H984.013ZM985.903 80.34C985.203 80.34 984.623 80.12 984.163 79.68C983.723 79.24 983.503 78.71 983.503 78.09C983.503 77.45 983.723 76.92 984.163 76.5C984.623 76.06 985.203 75.84 985.903 75.84C986.603 75.84 987.173 76.05 987.613 76.47C988.073 76.87 988.303 77.38 988.303 78C988.303 78.66 988.083 79.22 987.643 79.68C987.203 80.12 986.623 80.34 985.903 80.34ZM992.685 99V82.98H996.255V87.39L995.835 86.1C996.315 85.02 997.065 84.2 998.085 83.64C999.125 83.08 1000.41 82.8 1001.95 82.8V86.37C1001.79 86.33 1001.64 86.31 1001.5 86.31C1001.36 86.29 1001.22 86.28 1001.08 86.28C999.665 86.28 998.535 86.7 997.695 87.54C996.855 88.36 996.435 89.59 996.435 91.23V99H992.685ZM1012.52 99.21C1010.74 99.21 1009.18 98.86 1007.84 98.16C1006.52 97.44 1005.49 96.46 1004.75 95.22C1004.03 93.98 1003.67 92.57 1003.67 90.99C1003.67 89.39 1004.02 87.98 1004.72 86.76C1005.44 85.52 1006.42 84.55 1007.66 83.85C1008.92 83.15 1010.35 82.8 1011.95 82.8C1013.51 82.8 1014.9 83.14 1016.12 83.82C1017.34 84.5 1018.3 85.46 1019 86.7C1019.7 87.94 1020.05 89.4 1020.05 91.08C1020.05 91.24 1020.04 91.42 1020.02 91.62C1020.02 91.82 1020.01 92.01 1019.99 92.19H1006.64V89.7H1018.01L1016.54 90.48C1016.56 89.56 1016.37 88.75 1015.97 88.05C1015.57 87.35 1015.02 86.8 1014.32 86.4C1013.64 86 1012.85 85.8 1011.95 85.8C1011.03 85.8 1010.22 86 1009.52 86.4C1008.84 86.8 1008.3 87.36 1007.9 88.08C1007.52 88.78 1007.33 89.61 1007.33 90.57V91.17C1007.33 92.13 1007.55 92.98 1007.99 93.72C1008.43 94.46 1009.05 95.03 1009.85 95.43C1010.65 95.83 1011.57 96.03 1012.61 96.03C1013.51 96.03 1014.32 95.89 1015.04 95.61C1015.76 95.33 1016.4 94.89 1016.96 94.29L1018.97 96.6C1018.25 97.44 1017.34 98.09 1016.24 98.55C1015.16 98.99 1013.92 99.21 1012.52 99.21ZM1031 99.21C1029.32 99.21 1027.82 98.86 1026.5 98.16C1025.2 97.44 1024.18 96.46 1023.44 95.22C1022.7 93.98 1022.33 92.57 1022.33 90.99C1022.33 89.39 1022.7 87.98 1023.44 86.76C1024.18 85.52 1025.2 84.55 1026.5 83.85C1027.82 83.15 1029.32 82.8 1031 82.8C1032.56 82.8 1033.93 83.12 1035.11 83.76C1036.31 84.38 1037.22 85.3 1037.84 86.52L1034.96 88.2C1034.48 87.44 1033.89 86.88 1033.19 86.52C1032.51 86.16 1031.77 85.98 1030.97 85.98C1030.05 85.98 1029.22 86.18 1028.48 86.58C1027.74 86.98 1027.16 87.56 1026.74 88.32C1026.32 89.06 1026.11 89.95 1026.11 90.99C1026.11 92.03 1026.32 92.93 1026.74 93.69C1027.16 94.43 1027.74 95 1028.48 95.4C1029.22 95.8 1030.05 96 1030.97 96C1031.77 96 1032.51 95.82 1033.19 95.46C1033.89 95.1 1034.48 94.54 1034.96 93.78L1037.84 95.46C1037.22 96.66 1036.31 97.59 1035.11 98.25C1033.93 98.89 1032.56 99.21 1031 99.21ZM1047.32 99.21C1045.56 99.21 1044.2 98.76 1043.24 97.86C1042.28 96.94 1041.8 95.59 1041.8 93.81V79.44H1045.55V93.72C1045.55 94.48 1045.74 95.07 1046.12 95.49C1046.52 95.91 1047.07 96.12 1047.77 96.12C1048.61 96.12 1049.31 95.9 1049.87 95.46L1050.92 98.13C1050.48 98.49 1049.94 98.76 1049.3 98.94C1048.66 99.12 1048 99.21 1047.32 99.21ZM1039.16 86.1V83.1H1049.84V86.1H1039.16ZM1054 99V76.74H1057.75V99H1054ZM1063.99 105.03C1063.21 105.03 1062.43 104.9 1061.65 104.64C1060.87 104.38 1060.22 104.02 1059.7 103.56L1061.2 100.8C1061.58 101.14 1062.01 101.41 1062.49 101.61C1062.97 101.81 1063.46 101.91 1063.96 101.91C1064.64 101.91 1065.19 101.74 1065.61 101.4C1066.03 101.06 1066.42 100.49 1066.78 99.69L1067.71 97.59L1068.01 97.14L1074.07 82.98H1077.67L1070.17 100.29C1069.67 101.49 1069.11 102.44 1068.49 103.14C1067.89 103.84 1067.21 104.33 1066.45 104.61C1065.71 104.89 1064.89 105.03 1063.99 105.03ZM1067.29 99.57L1060.06 82.98H1063.96L1069.84 96.81L1067.29 99.57ZM1081.37 87.78C1080.69 87.78 1080.11 87.55 1079.63 87.09C1079.15 86.61 1078.91 86.01 1078.91 85.29C1078.91 84.53 1079.15 83.93 1079.63 83.49C1080.11 83.03 1080.69 82.8 1081.37 82.8C1082.05 82.8 1082.63 83.03 1083.11 83.49C1083.59 83.93 1083.83 84.53 1083.83 85.29C1083.83 86.01 1083.59 86.61 1083.11 87.09C1082.63 87.55 1082.05 87.78 1081.37 87.78ZM1081.37 99.21C1080.69 99.21 1080.11 98.98 1079.63 98.52C1079.15 98.04 1078.91 97.44 1078.91 96.72C1078.91 95.96 1079.15 95.36 1079.63 94.92C1080.11 94.46 1080.69 94.23 1081.37 94.23C1082.05 94.23 1082.63 94.46 1083.11 94.92C1083.59 95.36 1083.83 95.96 1083.83 96.72C1083.83 97.44 1083.59 98.04 1083.11 98.52C1082.63 98.98 1082.05 99.21 1081.37 99.21ZM1091.21 104.82C1090.03 103 1089.12 100.9 1088.48 98.52C1087.86 96.12 1087.55 93.54 1087.55 90.78C1087.55 88.02 1087.86 85.44 1088.48 83.04C1089.12 80.62 1090.03 78.52 1091.21 76.74H1094.78C1093.56 78.94 1092.66 81.19 1092.08 83.49C1091.52 85.77 1091.24 88.2 1091.24 90.78C1091.24 93.36 1091.52 95.8 1092.08 98.1C1092.66 100.38 1093.56 102.62 1094.78 104.82H1091.21ZM1105.18 99.3C1103.44 99.3 1101.93 99.04 1100.65 98.52C1099.37 98 1098.38 97.27 1097.68 96.33C1096.98 95.37 1096.63 94.25 1096.63 92.97C1096.63 91.69 1096.97 90.61 1097.65 89.73C1098.33 88.85 1099.31 88.18 1100.59 87.72C1101.87 87.26 1103.4 87.03 1105.18 87.03C1106.96 87.03 1108.49 87.26 1109.77 87.72C1111.07 88.18 1112.06 88.86 1112.74 89.76C1113.44 90.64 1113.79 91.71 1113.79 92.97C1113.79 94.25 1113.43 95.37 1112.71 96.33C1112.01 97.27 1111.01 98 1109.71 98.52C1108.43 99.04 1106.92 99.3 1105.18 99.3ZM1105.18 96.24C1106.62 96.24 1107.76 95.94 1108.6 95.34C1109.44 94.74 1109.86 93.91 1109.86 92.85C1109.86 91.81 1109.44 90.99 1108.6 90.39C1107.76 89.79 1106.62 89.49 1105.18 89.49C1103.74 89.49 1102.61 89.79 1101.79 90.39C1100.97 90.99 1100.56 91.81 1100.56 92.85C1100.56 93.91 1100.97 94.74 1101.79 95.34C1102.61 95.94 1103.74 96.24 1105.18 96.24ZM1105.18 89.07C1103.56 89.07 1102.17 88.86 1101.01 88.44C1099.85 88 1098.95 87.37 1098.31 86.55C1097.69 85.71 1097.38 84.71 1097.38 83.55C1097.38 82.35 1097.7 81.32 1098.34 80.46C1099 79.58 1099.92 78.9 1101.1 78.42C1102.28 77.94 1103.64 77.7 1105.18 77.7C1106.74 77.7 1108.11 77.94 1109.29 78.42C1110.47 78.9 1111.39 79.58 1112.05 80.46C1112.71 81.32 1113.04 82.35 1113.04 83.55C1113.04 84.71 1112.72 85.71 1112.08 86.55C1111.46 87.37 1110.56 88 1109.38 88.44C1108.2 88.86 1106.8 89.07 1105.18 89.07ZM1105.18 86.67C1106.42 86.67 1107.4 86.41 1108.12 85.89C1108.84 85.35 1109.2 84.63 1109.2 83.73C1109.2 82.79 1108.83 82.06 1108.09 81.54C1107.35 81.02 1106.38 80.76 1105.18 80.76C1103.98 80.76 1103.02 81.02 1102.3 81.54C1101.58 82.06 1101.22 82.79 1101.22 83.73C1101.22 84.63 1101.57 85.35 1102.27 85.89C1102.99 86.41 1103.96 86.67 1105.18 86.67ZM1124.75 99.3C1123.01 99.3 1121.5 99.04 1120.22 98.52C1118.94 98 1117.95 97.27 1117.25 96.33C1116.55 95.37 1116.2 94.25 1116.2 92.97C1116.2 91.69 1116.54 90.61 1117.22 89.73C1117.9 88.85 1118.88 88.18 1120.16 87.72C1121.44 87.26 1122.97 87.03 1124.75 87.03C1126.53 87.03 1128.06 87.26 1129.34 87.72C1130.64 88.18 1131.63 88.86 1132.31 89.76C1133.01 90.64 1133.36 91.71 1133.36 92.97C1133.36 94.25 1133 95.37 1132.28 96.33C1131.58 97.27 1130.58 98 1129.28 98.52C1128 99.04 1126.49 99.3 1124.75 99.3ZM1124.75 96.24C1126.19 96.24 1127.33 95.94 1128.17 95.34C1129.01 94.74 1129.43 93.91 1129.43 92.85C1129.43 91.81 1129.01 90.99 1128.17 90.39C1127.33 89.79 1126.19 89.49 1124.75 89.49C1123.31 89.49 1122.18 89.79 1121.36 90.39C1120.54 90.99 1120.13 91.81 1120.13 92.85C1120.13 93.91 1120.54 94.74 1121.36 95.34C1122.18 95.94 1123.31 96.24 1124.75 96.24ZM1124.75 89.07C1123.13 89.07 1121.74 88.86 1120.58 88.44C1119.42 88 1118.52 87.37 1117.88 86.55C1117.26 85.71 1116.95 84.71 1116.95 83.55C1116.95 82.35 1117.27 81.32 1117.91 80.46C1118.57 79.58 1119.49 78.9 1120.67 78.42C1121.85 77.94 1123.21 77.7 1124.75 77.7C1126.31 77.7 1127.68 77.94 1128.86 78.42C1130.04 78.9 1130.96 79.58 1131.62 80.46C1132.28 81.32 1132.61 82.35 1132.61 83.55C1132.61 84.71 1132.29 85.71 1131.65 86.55C1131.03 87.37 1130.13 88 1128.95 88.44C1127.77 88.86 1126.37 89.07 1124.75 89.07ZM1124.75 86.67C1125.99 86.67 1126.97 86.41 1127.69 85.89C1128.41 85.35 1128.77 84.63 1128.77 83.73C1128.77 82.79 1128.4 82.06 1127.66 81.54C1126.92 81.02 1125.95 80.76 1124.75 80.76C1123.55 80.76 1122.59 81.02 1121.87 81.54C1121.15 82.06 1120.79 82.79 1120.79 83.73C1120.79 84.63 1121.14 85.35 1121.84 85.89C1122.56 86.41 1123.53 86.67 1124.75 86.67ZM1138.8 104.82H1135.23C1136.47 102.62 1137.37 100.38 1137.93 98.1C1138.51 95.8 1138.8 93.36 1138.8 90.78C1138.8 88.2 1138.51 85.77 1137.93 83.49C1137.37 81.19 1136.47 78.94 1135.23 76.74H1138.8C1140 78.52 1140.91 80.62 1141.53 83.04C1142.15 85.44 1142.46 88.02 1142.46 90.78C1142.46 93.54 1142.15 96.12 1141.53 98.52C1140.91 100.9 1140 103 1138.8 104.82ZM975.322 144.3C973.842 144.3 972.392 144.09 970.972 143.67C969.572 143.23 968.392 142.63 967.432 141.87L969.112 138.84C969.872 139.46 970.792 139.96 971.872 140.34C972.952 140.72 974.082 140.91 975.262 140.91C976.662 140.91 977.752 140.63 978.532 140.07C979.312 139.49 979.702 138.71 979.702 137.73C979.702 136.77 979.342 136.01 978.622 135.45C977.902 134.89 976.742 134.61 975.142 134.61H973.222V131.94L979.222 124.8L979.732 126.27H968.452V123H982.762V125.61L976.762 132.75L974.722 131.55H975.892C978.472 131.55 980.402 132.13 981.682 133.29C982.982 134.43 983.632 135.9 983.632 137.7C983.632 138.88 983.332 139.97 982.732 140.97C982.132 141.97 981.212 142.78 979.972 143.4C978.752 144 977.202 144.3 975.322 144.3ZM985.767 144V141.39L994.107 133.47C994.807 132.81 995.327 132.23 995.667 131.73C996.007 131.23 996.227 130.77 996.327 130.35C996.447 129.91 996.507 129.5 996.507 129.12C996.507 128.16 996.177 127.42 995.517 126.9C994.857 126.36 993.887 126.09 992.607 126.09C991.587 126.09 990.657 126.27 989.817 126.63C988.997 126.99 988.287 127.54 987.687 128.28L984.957 126.18C985.777 125.08 986.877 124.23 988.257 123.63C989.657 123.01 991.217 122.7 992.937 122.7C994.457 122.7 995.777 122.95 996.897 123.45C998.037 123.93 998.907 124.62 999.507 125.52C1000.13 126.42 1000.44 127.49 1000.44 128.73C1000.44 129.41 1000.35 130.09 1000.17 130.77C999.987 131.43 999.647 132.13 999.147 132.87C998.647 133.61 997.917 134.44 996.957 135.36L989.787 142.17L988.977 140.7H1001.25V144H985.767ZM1010.46 144.3C1008.98 144.3 1007.53 144.09 1006.11 143.67C1004.71 143.23 1003.53 142.63 1002.57 141.87L1004.22 138.84C1004.98 139.46 1005.9 139.96 1006.98 140.34C1008.08 140.72 1009.22 140.91 1010.4 140.91C1011.78 140.91 1012.86 140.62 1013.64 140.04C1014.44 139.46 1014.84 138.68 1014.84 137.7C1014.84 137.04 1014.67 136.46 1014.33 135.96C1014.01 135.46 1013.43 135.08 1012.59 134.82C1011.77 134.56 1010.64 134.43 1009.2 134.43H1004.13L1005.21 123H1017.54V126.27H1006.65L1008.69 124.41L1007.88 132.96L1005.84 131.13H1010.07C1012.15 131.13 1013.82 131.41 1015.08 131.97C1016.36 132.51 1017.29 133.27 1017.87 134.25C1018.47 135.21 1018.77 136.31 1018.77 137.55C1018.77 138.77 1018.47 139.89 1017.87 140.91C1017.27 141.93 1016.35 142.75 1015.11 143.37C1013.89 143.99 1012.34 144.3 1010.46 144.3ZM1035.91 144.3C1034.43 144.3 1032.98 144.09 1031.56 143.67C1030.16 143.23 1028.98 142.63 1028.02 141.87L1029.7 138.84C1030.46 139.46 1031.38 139.96 1032.46 140.34C1033.54 140.72 1034.67 140.91 1035.85 140.91C1037.25 140.91 1038.34 140.63 1039.12 140.07C1039.9 139.49 1040.29 138.71 1040.29 137.73C1040.29 136.77 1039.93 136.01 1039.21 135.45C1038.49 134.89 1037.33 134.61 1035.73 134.61H1033.81V131.94L1039.81 124.8L1040.32 126.27H1029.04V123H1043.35V125.61L1037.35 132.75L1035.31 131.55H1036.48C1039.06 131.55 1040.99 132.13 1042.27 133.29C1043.57 134.43 1044.22 135.9 1044.22 137.7C1044.22 138.88 1043.92 139.97 1043.32 140.97C1042.72 141.97 1041.8 142.78 1040.56 143.4C1039.34 144 1037.79 144.3 1035.91 144.3ZM1046.35 144V141.39L1054.69 133.47C1055.39 132.81 1055.91 132.23 1056.25 131.73C1056.59 131.23 1056.81 130.77 1056.91 130.35C1057.03 129.91 1057.09 129.5 1057.09 129.12C1057.09 128.16 1056.76 127.42 1056.1 126.9C1055.44 126.36 1054.47 126.09 1053.19 126.09C1052.17 126.09 1051.24 126.27 1050.4 126.63C1049.58 126.99 1048.87 127.54 1048.27 128.28L1045.54 126.18C1046.36 125.08 1047.46 124.23 1048.84 123.63C1050.24 123.01 1051.8 122.7 1053.52 122.7C1055.04 122.7 1056.36 122.95 1057.48 123.45C1058.62 123.93 1059.49 124.62 1060.09 125.52C1060.71 126.42 1061.02 127.49 1061.02 128.73C1061.02 129.41 1060.93 130.09 1060.75 130.77C1060.57 131.43 1060.23 132.13 1059.73 132.87C1059.23 133.61 1058.5 134.44 1057.54 135.36L1050.37 142.17L1049.56 140.7H1061.83V144H1046.35ZM1073.17 144.3C1071.27 144.3 1069.64 143.9 1068.28 143.1C1066.92 142.28 1065.88 141.1 1065.16 139.56C1064.44 138.02 1064.08 136.12 1064.08 133.86C1064.08 131.46 1064.51 129.43 1065.37 127.77C1066.25 126.11 1067.46 124.85 1069 123.99C1070.56 123.13 1072.35 122.7 1074.37 122.7C1075.43 122.7 1076.44 122.81 1077.4 123.03C1078.38 123.25 1079.21 123.59 1079.89 124.05L1078.45 126.99C1077.87 126.61 1077.24 126.35 1076.56 126.21C1075.9 126.05 1075.2 125.97 1074.46 125.97C1072.48 125.97 1070.91 126.58 1069.75 127.8C1068.59 129.02 1068.01 130.82 1068.01 133.2C1068.01 133.58 1068.02 134.03 1068.04 134.55C1068.06 135.05 1068.13 135.56 1068.25 136.08L1067.05 134.76C1067.41 133.94 1067.9 133.26 1068.52 132.72C1069.16 132.16 1069.91 131.74 1070.77 131.46C1071.65 131.18 1072.6 131.04 1073.62 131.04C1075 131.04 1076.23 131.31 1077.31 131.85C1078.39 132.37 1079.25 133.12 1079.89 134.1C1080.53 135.06 1080.85 136.19 1080.85 137.49C1080.85 138.87 1080.51 140.07 1079.83 141.09C1079.15 142.11 1078.23 142.9 1077.07 143.46C1075.91 144.02 1074.61 144.3 1073.17 144.3ZM1072.96 141.24C1073.76 141.24 1074.47 141.1 1075.09 140.82C1075.71 140.52 1076.19 140.1 1076.53 139.56C1076.89 139.02 1077.07 138.39 1077.07 137.67C1077.07 136.57 1076.69 135.7 1075.93 135.06C1075.17 134.42 1074.15 134.1 1072.87 134.1C1072.03 134.1 1071.29 134.26 1070.65 134.58C1070.03 134.88 1069.53 135.3 1069.15 135.84C1068.79 136.38 1068.61 137 1068.61 137.7C1068.61 138.34 1068.78 138.93 1069.12 139.47C1069.46 140.01 1069.95 140.44 1070.59 140.76C1071.25 141.08 1072.04 141.24 1072.96 141.24ZM1082.59 139.23V136.53L1092.94 123H1097.11L1086.91 136.53L1084.96 135.93H1101.61V139.23H1082.59ZM1094.11 144V139.23L1094.23 135.93V131.7H1097.89V144H1094.11ZM1118.14 144.3C1116.66 144.3 1115.21 144.09 1113.79 143.67C1112.39 143.23 1111.21 142.63 1110.25 141.87L1111.93 138.84C1112.69 139.46 1113.61 139.96 1114.69 140.34C1115.77 140.72 1116.9 140.91 1118.08 140.91C1119.48 140.91 1120.57 140.63 1121.35 140.07C1122.13 139.49 1122.52 138.71 1122.52 137.73C1122.52 136.77 1122.16 136.01 1121.44 135.45C1120.72 134.89 1119.56 134.61 1117.96 134.61H1116.04V131.94L1122.04 124.8L1122.55 126.27H1111.27V123H1125.58V125.61L1119.58 132.75L1117.54 131.55H1118.71C1121.29 131.55 1123.22 132.13 1124.5 133.29C1125.8 134.43 1126.45 135.9 1126.45 137.7C1126.45 138.88 1126.15 139.97 1125.55 140.97C1124.95 141.97 1124.03 142.78 1122.79 143.4C1121.57 144 1120.02 144.3 1118.14 144.3ZM1135.46 144.3C1133.98 144.3 1132.53 144.09 1131.11 143.67C1129.71 143.23 1128.53 142.63 1127.57 141.87L1129.25 138.84C1130.01 139.46 1130.93 139.96 1132.01 140.34C1133.09 140.72 1134.22 140.91 1135.4 140.91C1136.8 140.91 1137.89 140.63 1138.67 140.07C1139.45 139.49 1139.84 138.71 1139.84 137.73C1139.84 136.77 1139.48 136.01 1138.76 135.45C1138.04 134.89 1136.88 134.61 1135.28 134.61H1133.36V131.94L1139.36 124.8L1139.87 126.27H1128.59V123H1142.9V125.61L1136.9 132.75L1134.86 131.55H1136.03C1138.61 131.55 1140.54 132.13 1141.82 133.29C1143.12 134.43 1143.77 135.9 1143.77 137.7C1143.77 138.88 1143.47 139.97 1142.87 140.97C1142.27 141.97 1141.35 142.78 1140.11 143.4C1138.89 144 1137.34 144.3 1135.46 144.3Z" fill="white"/>
</svg>
